HIERARCHY
ROOT Hips
{
  OFFSET 38.0524 98.8127 3.3377
  CHANNELS 6 Xposition Yposition Zposition Zrotation Xrotation Yrotation
  JOINT spine
  {
    OFFSET 0 8.30104 0.477351
    CHANNELS 3 Zrotation Xrotation Yrotation
    JOINT spine1
    {
      OFFSET 0 10.4565 0
      CHANNELS 3 Zrotation Xrotation Yrotation
      JOINT spine2
      {
        OFFSET 0 10.0192 0
        CHANNELS 3 Zrotation Xrotation Yrotation
        JOINT Neck
        {
          OFFSET 0 25.7235 1.22641
          CHANNELS 3 Zrotation Xrotation Yrotation
          JOINT Head
          {
            OFFSET 0 7.77175 0
            CHANNELS 3 Zrotation Xrotation Yrotation
            End Site
            {
              OFFSET 0 18.812 -6.20394
            }
          }
        }
        JOINT RightShoulder
        {
          OFFSET -4.2188 10.82 -0.587439
          CHANNELS 3 Zrotation Xrotation Yrotation
          JOINT RightArm
          {
            OFFSET 0 14.1914 0
            CHANNELS 3 Zrotation Xrotation Yrotation
            JOINT RightArmRoll
            {
              OFFSET 0 7.16408 0
              CHANNELS 3 Zrotation Xrotation Yrotation
              JOINT RightForeArm
              {
                OFFSET 0 20.8665 0
                CHANNELS 3 Zrotation Xrotation Yrotation
                JOINT RightForeArmRoll
                {
                  OFFSET 0 8.03921 0
                  CHANNELS 3 Zrotation Xrotation Yrotation
                  JOINT RightHand
                  {
                    OFFSET 0 16.133 0
                    CHANNELS 3 Zrotation Xrotation Yrotation
                    End Site
                    {
                      OFFSET 0 0 0
                    }
                  }
                }
              }
            }
          }
        }
        JOINT LeftShoulder
        {
          OFFSET 4.2188 10.82 -0.587439
          CHANNELS 3 Zrotation Xrotation Yrotation
          JOINT LeftArm
          {
            OFFSET 0 14.1914 0
            CHANNELS 3 Zrotation Xrotation Yrotation
            JOINT LeftArmRoll
            {
              OFFSET 0 7.16408 0
              CHANNELS 3 Zrotation Xrotation Yrotation
              JOINT LeftForeArm
              {
                OFFSET 0 20.8665 0
                CHANNELS 3 Zrotation Xrotation Yrotation
                JOINT LeftForeArmRoll
                {
                  OFFSET 0 8.03921 0
                  CHANNELS 3 Zrotation Xrotation Yrotation
                  JOINT LeftHand
                  {
                    OFFSET 0 16.133 0
                    CHANNELS 3 Zrotation Xrotation Yrotation
                    End Site
                    {
                      OFFSET 0 0 0
                    }
                  }
                }
              }
            }
          }
        }
      }
    }
  }
  JOINT RightUpLeg
  {
    OFFSET -7.35773 -1.34921 -1.13181
    CHANNELS 3 Zrotation Xrotation Yrotation
    JOINT RightUpLegRoll
    {
      OFFSET 0 18.9168 0
      CHANNELS 3 Zrotation Xrotation Yrotation
      JOINT RightLeg
      {
        OFFSET 0 -23.4256 0
        CHANNELS 3 Zrotation Xrotation Yrotation
        JOINT RightLegRoll
        {
          OFFSET 0 23.5023 0
          CHANNELS 3 Zrotation Xrotation Yrotation
          JOINT RightFoot
          {
            OFFSET 0 19.5617 0
            CHANNELS 3 Zrotation Xrotation Yrotation
            JOINT RightToeBase
            {
              OFFSET 0 16.3526 0
              CHANNELS 3 Zrotation Xrotation Yrotation
              End Site
              {
                OFFSET 0.00693124 7.91943 -0.912837
              }
            }
          }
        }
      }
    }
  }
  JOINT LeftUpLeg
  {
    OFFSET 7.35773 -1.34921 -1.13181
    CHANNELS 3 Zrotation Xrotation Yrotation
    JOINT LeftUpLegRoll
    {
      OFFSET 0 18.9169 0
      CHANNELS 3 Zrotation Xrotation Yrotation
      JOINT LeftLeg
      {
        OFFSET 0 23.4255 0
        CHANNELS 3 Zrotation Xrotation Yrotation
        JOINT LeftLegRoll
        {
          OFFSET 0 23.7195 0
          CHANNELS 3 Zrotation Xrotation Yrotation
          JOINT LeftFoot
          {
            OFFSET 0 19.3444 0
            CHANNELS 3 Zrotation Xrotation Yrotation
            JOINT LeftToeBase
            {
              OFFSET 0 16.3526 0
              CHANNELS 3 Zrotation Xrotation Yrotation
              End Site
              {
                OFFSET -0.0310629 7.91944 -0.912837
              }
            }
          }
        }
      }
    }
  }
}
MOTION
Frames: 6
Frame Time: 0.00208333
38.0983 98.7698 4.05269 0.782957 -4.31093 0.941251 0.0239282 -1.20851 0.132082 0.0321344 1.58523 0.265938 0.0291492 3.2303 0.265584 -0.749081 24.3776 -1.22997 0.496104 -9.29292 -1.39713 76.5359 -0.402982 -2.21454 93.1314 23.3736 20.9053 -5.717e-006 3.18716e-006 4.69676e-006 13.3646 0.100558 -0.473871 6.16748e-007 -6.18645e-006 -3.06443 8.02887 -4.95144 0.697695 -68.6773 4.38461 -1.00485 -98.9931 11.1119 -15.8657 4.4644e-006 -6.84469e-007 3.76031e-006 -11.3041 3.65057 0.833148 2.66698e-006 -8.26871e-007 3.00322 -8.02889 -4.95146 -0.697686 175.158 -2.76735 1.91358 180 7.01533e-015 178.865 175.773 5.20799 179.761 -1.97615e-006 -1.96819e-007 0.0593939 -18.377 67.6185 19.2311 8.13649 25.2326 -3.48774 -175.816 -3.02834 0.711083 4.54188e-006 -4.6773e-006 -1.22517 -3.26396 -9.13375 0.440571 1.49002e-006 -3.53109e-006 -0.116257 18.4135 67.5645 -19.1605 -8.13649 25.2327 3.48774 
38.0988 98.7729 4.03953 0.781083 -4.31254 0.942433 0.0239066 -1.20928 0.132082 0.0320051 1.58303 0.26511 0.0290207 3.2281 0.264761 -0.758999 24.3959 -1.22626 0.511762 -9.30083 -1.39454 76.5435 -0.39903 -2.21365 93.141 23.3467 20.7838 -5.717e-006 3.18716e-006 4.69676e-006 13.4781 0.0988428 -0.460417 6.16748e-007 -6.18645e-006 -3.06304 8.02887 -4.95144 0.697695 -68.6809 4.38658 -1.00527 -98.9861 11.1135 -15.8161 4.4644e-006 -6.84469e-007 3.76031e-006 -11.3315 3.78116 0.848761 2.66698e-006 -8.26871e-007 3.00322 -8.02889 -4.95146 -0.697686 175.16 -2.76834 1.91611 180 7.01533e-015 178.865 175.769 5.2114 179.761 -1.97615e-006 -1.96819e-007 0.0593939 -18.3758 67.6171 19.2298 8.13649 25.2326 -3.48774 -175.816 -3.03261 0.717729 4.54188e-006 -4.6773e-006 -1.22517 -3.25576 -9.12948 0.44211 1.49002e-006 -3.53109e-006 -0.116257 18.4157 67.5673 -19.1629 -8.13649 25.2327 3.48774 
38.0989 98.7676 4.04499 0.779177 -4.31398 0.943681 0.0238745 -1.21011 0.132082 0.0318125 1.58066 0.264222 0.0288294 3.22572 0.263879 -0.768856 24.4152 -1.22243 0.527824 -9.30966 -1.39175 76.5518 -0.394841 -2.21273 93.1497 23.3186 20.6634 -5.717e-006 3.18716e-006 4.69676e-006 13.5919 0.0958771 -0.447287 6.16748e-007 -6.18645e-006 -3.06168 8.02887 -4.95144 0.697695 -68.6843 4.38842 -1.00564 -98.9794 11.1144 -15.768 4.4644e-006 -6.84469e-007 3.76031e-006 -11.3584 3.90936 0.864039 2.66698e-006 -8.26871e-007 3.00322 -8.02889 -4.95146 -0.697686 175.161 -2.76922 1.91888 180 7.01533e-015 178.865 175.765 5.21478 179.762 -1.97615e-006 -1.96819e-007 0.0593939 -18.3746 67.6156 19.2285 8.13649 25.2326 -3.48774 -175.817 -3.03697 0.724642 4.54188e-006 -4.6773e-006 -1.22517 -3.24729 -9.12484 0.44371 1.49002e-006 -3.53109e-006 -0.116257 18.418 67.5701 -19.1653 -8.13649 25.2327 3.48774 
38.0938 98.7703 4.06 0.777247 -4.31529 0.944974 0.023835 -1.21099 0.132081 0.0315756 1.57817 0.263291 0.0285941 3.22323 0.262955 -0.778674 24.4352 -1.21851 0.544169 -9.31914 -1.3888 76.5605 -0.390485 -2.21179 93.1578 23.2897 20.5437 -5.717e-006 3.18716e-006 4.69676e-006 13.706 0.0920361 -0.434384 6.16748e-007 -6.18645e-006 -3.06034 8.02887 -4.95144 0.697695 -68.6876 4.39016 -1.00598 -98.9729 11.1146 -15.7209 4.4644e-006 -6.84469e-007 3.76031e-006 -11.3851 4.03587 0.879086 2.66698e-006 -8.26871e-007 3.00322 -8.02889 -4.95146 -0.697686 175.163 -2.77002 1.9218 180 7.01533e-015 178.865 175.76 5.21819 179.763 -1.97615e-006 -1.96819e-007 0.0593939 -18.3734 67.6141 19.2272 8.13649 25.2326 -3.48774 -175.818 -3.04139 0.731741 4.54188e-006 -4.6773e-006 -1.22517 -3.23865 -9.11993 0.445354 1.49002e-006 -3.53109e-006 -0.116257 18.4203 67.5729 -19.1677 -8.13649 25.2327 3.48774 
38.0921 98.7679 4.05694 0.775304 -4.31654 0.946294 0.0237914 -1.21189 0.132081 0.0313133 1.57561 0.262335 0.0283336 3.22067 0.262008 -0.788469 24.4556 -1.21454 0.560676 -9.32899 -1.38577 76.5695 -0.386033 -2.21084 93.1655 23.2602 20.4245 -5.717e-006 3.18716e-006 4.69676e-006 13.8203 0.087695 -0.42161 6.16748e-007 -6.18645e-006 -3.05902 8.02887 -4.95144 0.697695 -68.6909 4.39184 -1.0063 -98.9665 11.1146 -15.6743 4.4644e-006 -6.84469e-007 3.76031e-006 -11.4116 4.16142 0.894004 2.66698e-006 -8.26871e-007 3.00322 -8.02889 -4.95146 -0.697686 175.164 -2.77078 1.92482 180 7.01533e-015 178.865 175.755 5.22159 179.763 -1.97615e-006 -1.96819e-007 0.0593939 -18.3723 67.6127 19.226 8.13649 25.2326 -3.48774 -175.819 -3.04584 0.738946 4.54188e-006 -4.6773e-006 -1.22517 -3.2299 -9.11488 0.447022 1.49002e-006 -3.53109e-006 -0.116257 18.4226 67.5758 -19.1702 -8.13649 25.2327 3.48774 
38.0957 98.7696 4.05985 0.773357 -4.31777 0.94762 0.0237466 -1.21279 0.13208 0.0310446 1.57303 0.261374 0.0280667 3.21809 0.261055 -0.798261 24.476 -1.21055 0.577225 -9.33894 -1.38272 76.5785 -0.381558 -2.20988 93.173 23.2304 20.3054 -5.717e-006 3.18716e-006 4.69676e-006 13.9346 0.0832287 -0.408868 6.16748e-007 -6.18645e-006 -3.0577 8.02887 -4.95144 0.697695 -68.6942 4.39351 -1.00662 -98.9601 11.1145 -15.628 4.4644e-006 -6.84469e-007 3.76031e-006 -11.4381 4.28674 0.908896 2.66698e-006 -8.26871e-007 3.00322 -8.02889 -4.95146 -0.697686 175.165 -2.77153 1.92786 180 7.01533e-015 178.865 175.75 5.22498 179.764 -1.97615e-006 -1.96819e-007 0.0593939 -18.3711 67.6112 19.2247 8.13649 25.2326 -3.48774 -175.82 -3.05029 0.746178 4.54188e-006 -4.6773e-006 -1.22517 -3.22113 -9.10978 0.448695 1.49002e-006 -3.53109e-006 -0.116257 18.4249 67.5786 -19.1727 -8.13649 25.2327 3.48774 
